<svg width="20" height="20" viewBox="0 0 20 20" fill="none" xmlns="http://www.w3.org/2000/svg">
<g clip-path="url(#clip0_76_2378)">
<path d="M9.99609 19C14.9667 19 18.9961 14.9706 18.9961 10C18.9961 5.02947 14.9667 1.00003 9.99609 1.00003C5.02553 1.00003 0.996094 5.02947 0.996094 10C0.996094 14.9706 5.02553 19 9.99609 19Z" fill="#EE2737"/>
<path d="M9.71484 9.24997C9.71484 10.1875 9.15234 11.125 8.30859 11.5937C7.93359 11.7812 7.65234 12.25 7.65234 12.7187L7.55859 14.2187C7.55859 14.5937 7.27734 14.9687 6.80859 14.9687C6.43359 14.9687 6.05859 14.5937 6.05859 14.2187V12.7187C6.05859 12.25 5.77734 11.875 5.40234 11.5937C4.55859 11.0312 3.99609 10.0937 3.99609 9.06247C3.99609 8.03122 3.99609 6.99997 4.18359 5.96872C4.18359 5.78122 4.27734 5.59372 4.46484 5.49997C4.65234 5.40622 4.74609 5.31247 4.93359 5.40622C5.30859 5.49997 5.49609 5.87497 5.49609 6.15622C5.40234 6.81247 5.30859 7.56247 5.30859 8.31247C5.30859 8.40622 5.30859 8.59372 5.40234 8.59372C5.49609 8.59372 5.58984 8.68747 5.68359 8.78122C5.96484 8.78122 6.15234 8.59372 6.15234 8.31247V5.68747C6.15234 5.49997 6.24609 5.31247 6.33984 5.12497C6.52734 5.03122 6.71484 4.93747 6.90234 4.93747C7.27734 5.03122 7.46484 5.31247 7.46484 5.68747V8.31247C7.46484 8.49997 7.55859 8.59372 7.65234 8.68747C7.83984 8.78122 7.93359 8.78122 8.12109 8.68747C8.30859 8.59372 8.30859 8.40622 8.30859 8.31247C8.30859 7.56247 8.21484 6.90622 8.12109 6.15622C8.02734 5.78122 8.30859 5.40622 8.68359 5.40622C8.87109 5.40622 9.05859 5.40622 9.15234 5.49997C9.24609 5.59372 9.33984 5.78122 9.43359 5.96872C9.71484 7.09372 9.80859 8.12497 9.71484 9.24997ZM13.3711 4.93747C15.0586 4.93747 15.9023 7.56247 15.9023 9.24997C15.9023 10.0937 15.4336 10.9375 14.6836 11.4062C14.3086 11.5937 14.1211 11.9687 14.1211 12.4375V14.2187C14.1211 14.5 14.0273 14.6875 13.7461 14.875C13.5586 14.9687 13.2773 14.9687 12.9961 14.875C12.8086 14.7812 12.6211 14.5 12.6211 14.2187L12.5273 12.4375C12.5273 12.0625 12.2461 11.6875 11.9648 11.4062C11.2148 10.9375 10.7461 10.0937 10.7461 9.24997C10.8398 7.56247 11.6836 4.93747 13.3711 4.93747Z" fill="white"/>
</g>
<defs>
<clipPath id="clip0_76_2378">
<rect width="20" height="20" fill="white"/>
</clipPath>
</defs>
</svg>
