<svg width="20" height="20" viewBox="0 0 20 20" fill="none" xmlns="http://www.w3.org/2000/svg">
<g clip-path="url(#clip0_76_2575)">
<path d="M9.99903 1.00244C6.24161 1.00244 5.14271 1.00632 4.92911 1.02404C4.15802 1.08813 3.67821 1.20954 3.15547 1.4698C2.75263 1.66984 2.43492 1.90172 2.12136 2.22676C1.55031 2.81955 1.20422 3.54882 1.07894 4.41571C1.01803 4.83655 1.00031 4.92238 0.996709 7.07201C0.995325 7.78855 0.996709 8.73157 0.996709 9.99646C0.996709 13.7508 1.00086 14.8486 1.01886 15.0618C1.08115 15.8121 1.19882 16.2842 1.44801 16.8006C1.92423 17.789 2.83375 18.531 3.90524 18.8079C4.27625 18.9034 4.68602 18.956 5.21207 18.9809C5.43495 18.9906 7.70668 18.9975 9.97979 18.9975C12.2529 18.9975 14.526 18.9948 14.7434 18.9837C15.3525 18.955 15.7062 18.9075 16.0973 18.8065C17.1757 18.5282 18.0686 17.7973 18.5545 16.795C18.7988 16.2911 18.9227 15.8011 18.9788 15.0899C18.991 14.9349 18.9961 12.4628 18.9961 9.9941C18.9961 7.52497 18.9906 5.05749 18.9784 4.90245C18.9216 4.17981 18.7977 3.6939 18.5455 3.18031C18.3385 2.75988 18.1087 2.44591 17.7751 2.12488C17.1797 1.55618 16.4515 1.21009 15.5838 1.08495C15.1634 1.02418 15.0796 1.00618 12.9283 1.00244H9.99903Z" fill="url(#paint0_radial_76_2575)"/>
<path d="M9.99903 1.00244C6.24161 1.00244 5.14271 1.00632 4.92911 1.02404C4.15802 1.08813 3.67821 1.20954 3.15547 1.4698C2.75263 1.66984 2.43492 1.90172 2.12136 2.22676C1.55031 2.81955 1.20422 3.54882 1.07894 4.41571C1.01803 4.83655 1.00031 4.92238 0.996709 7.07201C0.995325 7.78855 0.996709 8.73157 0.996709 9.99646C0.996709 13.7508 1.00086 14.8486 1.01886 15.0618C1.08115 15.8121 1.19882 16.2842 1.44801 16.8006C1.92423 17.789 2.83375 18.531 3.90524 18.8079C4.27625 18.9034 4.68602 18.956 5.21207 18.9809C5.43495 18.9906 7.70668 18.9975 9.97979 18.9975C12.2529 18.9975 14.526 18.9948 14.7434 18.9837C15.3525 18.955 15.7062 18.9075 16.0973 18.8065C17.1757 18.5282 18.0686 17.7973 18.5545 16.795C18.7988 16.2911 18.9227 15.8011 18.9788 15.0899C18.991 14.9349 18.9961 12.4628 18.9961 9.9941C18.9961 7.52497 18.9906 5.05749 18.9784 4.90245C18.9216 4.17981 18.7977 3.6939 18.5455 3.18031C18.3385 2.75988 18.1087 2.44591 17.7751 2.12488C17.1797 1.55618 16.4515 1.21009 15.5838 1.08495C15.1634 1.02418 15.0796 1.00618 12.9283 1.00244H9.99903Z" fill="url(#paint1_radial_76_2575)"/>
<path d="M9.99507 3.35583C8.19042 3.35583 7.96394 3.36373 7.25515 3.39598C6.54775 3.42838 6.06488 3.54037 5.64238 3.70469C5.20534 3.87441 4.83461 4.10145 4.46526 4.47093C4.09564 4.84028 3.8686 5.21101 3.69833 5.64791C3.53359 6.07055 3.42146 6.55356 3.38962 7.26069C3.35792 7.96947 3.34961 8.19609 3.34961 10.0007C3.34961 11.8054 3.35764 12.0312 3.38976 12.74C3.42229 13.4474 3.53428 13.9302 3.69847 14.3527C3.86833 14.7898 4.09536 15.1605 4.46485 15.5299C4.83405 15.8995 5.20478 16.1271 5.64155 16.2968C6.06433 16.4611 6.54733 16.5731 7.2546 16.6055C7.96339 16.6378 8.18973 16.6456 9.99424 16.6456C11.799 16.6456 12.0248 16.6378 12.7336 16.6055C13.441 16.5731 13.9244 16.4611 14.3472 16.2968C14.7841 16.1271 15.1543 15.8995 15.5235 15.5299C15.8931 15.1605 16.1201 14.7898 16.2904 14.3529C16.4538 13.9302 16.5659 13.4472 16.5991 12.7401C16.631 12.0313 16.6393 11.8054 16.6393 10.0007C16.6393 8.19609 16.631 7.96961 16.5991 7.26082C16.5659 6.55342 16.4538 6.07055 16.2904 5.64805C16.1201 5.21101 15.8931 4.84028 15.5235 4.47093C15.1539 4.10131 14.7842 3.87428 14.3468 3.70469C13.9232 3.54037 13.44 3.42838 12.7326 3.39598C12.0238 3.36373 11.7982 3.35583 9.99299 3.35583H9.99507ZM9.39896 4.5533C9.57588 4.55303 9.77329 4.5533 9.99507 4.5533C11.7693 4.5533 11.9795 4.55967 12.6802 4.59151C13.328 4.62114 13.6797 4.72939 13.9139 4.82034C14.224 4.94078 14.4451 5.08476 14.6775 5.31733C14.9101 5.5499 15.0541 5.7714 15.1748 6.08149C15.2657 6.31545 15.3741 6.66707 15.4036 7.31495C15.4354 8.01544 15.4424 8.22586 15.4424 9.99922C15.4424 11.7726 15.4354 11.983 15.4036 12.6835C15.374 13.3314 15.2657 13.683 15.1748 13.9169C15.0543 14.227 14.9101 14.4478 14.6775 14.6803C14.4449 14.9128 14.2241 15.0568 13.9139 15.1773C13.6799 15.2686 13.328 15.3766 12.6802 15.4062C11.9797 15.4381 11.7693 15.445 9.99507 15.445C8.22074 15.445 8.01046 15.4381 7.30997 15.4062C6.66209 15.3763 6.31047 15.2681 6.0761 15.1771C5.766 15.0567 5.5445 14.9127 5.31193 14.6801C5.07936 14.4476 4.93539 14.2266 4.81467 13.9164C4.72372 13.6824 4.61533 13.3308 4.58584 12.6829C4.554 11.9824 4.54763 11.772 4.54763 9.99755C4.54763 8.22309 4.554 8.01377 4.58584 7.31329C4.61546 6.66541 4.72372 6.31379 4.81467 6.07955C4.93511 5.76946 5.07936 5.54796 5.31193 5.31539C5.5445 5.08282 5.766 4.93884 6.0761 4.81813C6.31033 4.72676 6.66209 4.61878 7.30997 4.58902C7.92296 4.56133 8.16052 4.55303 9.39896 4.55164V4.5533ZM13.5421 5.65663C13.1018 5.65663 12.7447 6.01338 12.7447 6.45374C12.7447 6.89397 13.1018 7.25113 13.5421 7.25113C13.9823 7.25113 14.3394 6.89397 14.3394 6.45374C14.3394 6.01352 13.9823 5.65636 13.5421 5.65636V5.65663ZM9.99507 6.5883C8.11054 6.5883 6.58263 8.11622 6.58263 10.0007C6.58263 11.8853 8.11054 13.4125 9.99507 13.4125C11.8796 13.4125 13.4069 11.8853 13.4069 10.0007C13.4069 8.11622 11.8796 6.5883 9.99507 6.5883ZM9.99507 7.78577C11.2183 7.78577 12.21 8.77738 12.21 10.0007C12.21 11.224 11.2183 12.2157 9.99507 12.2157C8.77171 12.2157 7.7801 11.224 7.7801 10.0007C7.7801 8.77738 8.77171 7.78577 9.99507 7.78577Z" fill="white"/>
</g>
<defs>
<radialGradient id="paint0_radial_76_2575" cx="0" cy="0" r="1" gradientUnits="userSpaceOnUse" gradientTransform="translate(5.77737 20.3835) rotate(-90) scale(17.8345 16.592)">
<stop stop-color="#FFDD55"/>
<stop offset="0.1" stop-color="#FFDD55"/>
<stop offset="0.5" stop-color="#FF543E"/>
<stop offset="1" stop-color="#C837AB"/>
</radialGradient>
<radialGradient id="paint1_radial_76_2575" cx="0" cy="0" r="1" gradientTransform="matrix(1.56517 7.81701 -32.2301 6.45341 -2.019 2.29878)" gradientUnits="userSpaceOnUse">
<stop stop-color="#3771C8"/>
<stop offset="0.128" stop-color="#3771C8"/>
<stop offset="1" stop-color="#6600FF" stop-opacity="0"/>
</radialGradient>
<clipPath id="clip0_76_2575">
<rect width="20" height="20" fill="white"/>
</clipPath>
</defs>
</svg>
