<svg width="47" height="47" viewBox="0 0 47 47" fill="none" xmlns="http://www.w3.org/2000/svg">
<path d="M41.8493 22.3054V34.0358C41.8493 39.4408 37.4627 43.8275 32.0577 43.8275H14.9418C9.53684 43.8275 5.15018 39.4408 5.15018 34.0358V22.4425C6.63851 24.0483 8.75351 24.9687 11.0448 24.9687C13.5123 24.9687 15.8818 23.735 17.3702 21.7571C18.7018 23.735 20.9735 24.9687 23.4998 24.9687C26.0064 24.9687 28.2389 23.7937 29.5902 21.8354C31.0981 23.7742 33.4285 24.9687 35.8568 24.9687C38.2264 24.9687 40.3806 24.0092 41.8493 22.3054Z" fill="#E0B44C"/>
<path d="M29.3551 2.44792H17.6051L16.1559 16.8613C16.0384 18.1929 16.2343 19.4463 16.7239 20.5821C17.8597 23.2454 20.523 24.9688 23.4997 24.9688C26.5155 24.9688 29.1201 23.2846 30.2951 20.6017C30.6476 19.7596 30.863 18.7804 30.8826 17.7817V17.4096L29.3551 2.44792Z" fill="#FCFCFC"/>
<path d="M43.7879 16.1954L43.22 10.7708C42.3975 4.85667 39.7146 2.44792 33.9766 2.44792H26.4566L27.9058 17.1354C27.9254 17.3313 27.945 17.5467 27.945 17.9188C28.0625 18.9371 28.3758 19.8771 28.8458 20.7192C30.2558 23.3042 32.9975 24.9688 35.8566 24.9688C38.4612 24.9688 40.8112 23.8133 42.28 21.7767C43.455 20.21 43.9837 18.2321 43.7879 16.1954Z" fill="#CD3D3D"/>
<path d="M12.9057 2.44792C7.14818 2.44792 4.48484 4.85667 3.64276 10.8296L3.11401 16.215C2.91818 18.3104 3.48609 20.3471 4.71984 21.9333C6.20818 23.8721 8.49943 24.9688 11.0453 24.9688C13.9044 24.9688 16.6461 23.3042 18.0365 20.7583C18.5457 19.8771 18.8786 18.8588 18.9765 17.8013L20.504 2.46751H12.9057V2.44792Z" fill="#CD3D3D"/>
<path d="M22.2273 32.6258C19.7402 32.8804 17.8602 34.9954 17.8602 37.5021V43.8275H29.1206V38.1875C29.1402 34.0946 26.7315 32.1558 22.2273 32.6258Z" fill="#675323"/>
</svg>
