<svg width="20" height="20" viewBox="0 0 20 20" fill="none" xmlns="http://www.w3.org/2000/svg">
<g clip-path="url(#clip0_76_2370)">
<path d="M16.2449 1.29733H9.99417H3.7434L1.49609 4.60702L2.08084 17.2234C2.11943 18.0513 2.80163 18.7026 3.6305 18.7026H5.98009V14.015C5.98009 13.8172 5.90772 13.6261 5.77649 13.4785L5.14543 12.7664C4.99297 12.5937 4.90806 12.2926 4.90806 12.062V7.66196C4.90806 7.48152 5.05473 7.33485 5.23517 7.33485H5.84307V11.1C5.84307 11.2756 5.98491 11.4174 6.16149 11.4174H6.20588C6.38149 11.4174 6.52334 11.2756 6.52334 11.1V7.33485H6.96141H7.39949V11.1C7.39949 11.2756 7.54133 11.4174 7.71791 11.4174H7.7623C7.93792 11.4174 8.08072 11.2756 8.08072 11.1V7.33485H8.68862C8.86906 7.33485 9.01573 7.48055 9.01573 7.66196V12.062C9.01573 12.2926 8.93082 12.5946 8.77836 12.7664L8.1473 13.4785C8.01607 13.6261 7.94371 13.8172 7.94371 14.015V18.7026H9.99706H12.0398V13.6261C12.0398 13.3434 11.9018 13.1176 11.7108 12.9218C11.6008 12.8426 11.4975 12.7529 11.4001 12.6545C11.3991 12.6545 11.3991 12.6535 11.3981 12.6535V12.6525C10.878 12.1247 10.548 11.3277 10.548 10.4101C10.548 8.75425 11.623 7.07915 12.9478 7.07915C14.2736 7.07915 15.3485 8.75522 15.3485 10.4101C15.3485 11.3277 15.0185 12.1247 14.4984 12.6525V12.6535C14.4975 12.6545 14.4975 12.6545 14.4965 12.6545C14.399 12.7529 14.2958 12.8426 14.1868 12.9218C13.9947 13.1176 13.8577 13.3434 13.8577 13.6261V18.7026H16.3607C17.1896 18.7026 17.8718 18.0513 17.9104 17.2234L18.4961 4.60702L16.2449 1.29733ZM13.6406 4.69868H9.99417H6.34772V3.08244C6.34772 2.89235 6.50404 2.73796 6.69606 2.73796H9.99417H13.2923C13.4843 2.73796 13.6406 2.89235 13.6406 3.08244V4.69868Z" fill="#E94E30"/>
</g>
<defs>
<clipPath id="clip0_76_2370">
<rect width="20" height="20" fill="white"/>
</clipPath>
</defs>
</svg>
