<svg width="20" height="20" viewBox="0 0 20 20" fill="none" xmlns="http://www.w3.org/2000/svg">
<g clip-path="url(#clip0_76_2414)">
<path d="M6.03378 16.187L6.30464 16.3475C7.44225 17.0226 8.74662 17.3798 10.0768 17.3804H10.0796C14.1646 17.3804 17.489 14.0566 17.4907 9.97141C17.4915 7.99177 16.7213 6.13017 15.322 4.72982C14.6357 4.0392 13.8193 3.49157 12.9199 3.11863C12.0205 2.74568 11.0561 2.55483 10.0825 2.55712C5.9944 2.55712 2.66979 5.88052 2.66833 9.96547C2.66632 11.3604 3.05912 12.7274 3.80134 13.9084L3.97767 14.1886L3.22884 16.9224L6.03378 16.187ZM1.08789 19.0403L2.35299 14.4213C1.57277 13.0695 1.1623 11.536 1.16279 9.96487C1.16485 5.04988 5.16461 1.05133 10.0797 1.05133C12.4649 1.05254 14.7036 1.98074 16.3873 3.66564C18.071 5.35055 18.9974 7.59015 18.9965 9.97202C18.9943 14.8866 14.994 18.8859 10.0796 18.8859H10.0757C8.5835 18.8853 7.11722 18.511 5.81479 17.8008L1.08789 19.0403Z" fill="#B3B3B3"/>
<path d="M0.996094 18.9486L2.2612 14.3296C1.47963 12.9746 1.0691 11.4375 1.07099 9.87319C1.07305 4.9582 5.07281 0.959656 9.98792 0.959656C12.3731 0.960868 14.6118 1.88906 16.2955 3.57397C17.9792 5.25888 18.9056 7.49847 18.9047 9.88034C18.9025 14.795 14.9022 18.7942 9.9878 18.7942H9.98392C8.4917 18.7936 7.02543 18.4193 5.72299 17.7091L0.996094 18.9486Z" fill="white"/>
<path d="M9.99035 2.46547C5.90224 2.46547 2.57763 5.78887 2.57618 9.87383C2.57417 11.2687 2.96697 12.6357 3.70919 13.8168L3.88552 14.0971L3.13668 16.8309L5.94175 16.0954L6.21261 16.2558C7.35022 16.931 8.65459 17.288 9.98478 17.2887H9.98756C14.0725 17.2887 17.3971 13.965 17.3987 9.87977C17.4018 8.90608 17.2117 7.94144 16.8394 7.04172C16.4672 6.14199 15.9201 5.32504 15.23 4.63817C14.5437 3.94754 13.7272 3.3999 12.8278 3.02696C11.9284 2.65401 10.964 2.46317 9.99035 2.46547Z" fill="url(#paint0_linear_76_2414)"/>
<path fill-rule="evenodd" clip-rule="evenodd" d="M7.7594 6.14676C7.5924 5.7758 7.41668 5.76829 7.25804 5.76186L6.83096 5.75665C6.68239 5.75665 6.44097 5.8124 6.23689 6.03539C6.03281 6.25838 5.45703 6.79731 5.45703 7.89348C5.45703 8.98964 6.25543 10.0488 6.36668 10.1977C6.47794 10.3465 7.90798 12.6676 10.1727 13.5607C12.0546 14.3029 12.4376 14.1553 12.8462 14.1182C13.2549 14.0811 14.1644 13.5792 14.35 13.059C14.5355 12.5387 14.5356 12.093 14.48 11.9998C14.4244 11.9066 14.2758 11.8512 14.0528 11.7397C13.8298 11.6282 12.7346 11.0893 12.5304 11.0149C12.3262 10.9404 12.1778 10.9035 12.0291 11.1265C11.8804 11.3495 11.4539 11.8511 11.3238 11.9998C11.1938 12.1485 11.064 12.1671 10.841 12.0558C10.618 11.9444 9.90059 11.709 9.04935 10.95C8.38705 10.3595 7.93998 9.63013 7.80982 9.40726C7.67966 9.1844 7.796 9.06369 7.90774 8.95268C8.00772 8.85282 8.13049 8.69248 8.2421 8.56245C8.35372 8.43241 8.39044 8.33946 8.46461 8.191C8.53878 8.04254 8.50181 7.91214 8.44607 7.80077C8.39032 7.68939 7.95743 6.58741 7.7594 6.14676Z" fill="white"/>
</g>
<defs>
<linearGradient id="paint0_linear_76_2414" x1="9.83656" y1="3.35501" x2="9.9117" y2="16.0224" gradientUnits="userSpaceOnUse">
<stop stop-color="#57D163"/>
<stop offset="1" stop-color="#23B33A"/>
</linearGradient>
<clipPath id="clip0_76_2414">
<rect width="20" height="20" fill="white"/>
</clipPath>
</defs>
</svg>
